<?xml version="1.0" encoding="utf-8"?>
<!-- Generator: Adobe Illustrator 18.0.0, SVG Export Plug-In . SVG Version: 6.00 Build 0)  -->
<!DOCTYPE svg PUBLIC "-//W3C//DTD SVG 1.1//EN" "http://www.w3.org/Graphics/SVG/1.1/DTD/svg11.dtd">
<svg version="1.1" id="Calque_1" xmlns="http://www.w3.org/2000/svg" xmlns:xlink="http://www.w3.org/1999/xlink" x="0px" y="0px"
	 viewBox="0 0 40 14" enable-background="new 0 0 40 14" xml:space="preserve">
<g>
	<path fill="#FFFFFF" d="M6,4.1c1.4,0,5,0.9,5,5.2c0,2.1,0,4.4,0,4.4s-2-0.3-2-2c0-1.7,0-2.8,0-2.8C9,8.1,8.4,6,5.9,6
		C3.5,6,2.9,8,2.9,8.9c0,0.9,0.5,2.9,3.2,2.9c1.2,0,2.4-1,2.5-1.1c0.1,0,0.3,0.3,0.3,0.9c0,0.5-0.1,2.1-2.8,2.1
		c-2.7,0-4.9-2.1-4.9-4.7C1.1,6.4,3.1,4.1,6,4.1z"/>
	<path fill="#FFFFFF" d="M13,0.3c0,0,2,0.4,2,1.8c0,1.4,0,11.7,0,11.7s-2-0.4-2-1.9C13,10.3,13,0.3,13,0.3z"/>
	<path fill="#FFFFFF" d="M33.5,4.1c-2.9,0-5.3,2.1-5.3,4.8c0,2.6,2.4,4.8,5.3,4.8c2.9,0,5.3-2.1,5.3-4.8C38.8,6.2,36.4,4.1,33.5,4.1
		z M33.5,11.7c-1.9,0-3.4-1.3-3.4-2.8c0-1.6,1.5-2.8,3.4-2.8c1.9,0,3.4,1.3,3.4,2.8C36.9,10.4,35.4,11.7,33.5,11.7z"/>
	<path fill="#FFFFFF" d="M21.9,4.1c1.2,0,3.6,0.9,4.4,2.8c0,0-0.2,0.5-1,0.5c-1.1,0-1.4-1.4-3.7-1.4c-1.6,0-3.1,1.3-3.1,2.9
		c0,2.2,1.8,2.9,2.9,2.9c1.4,0,3-0.9,3-2.1l-1.3,0c-2.3,0-2.4-1.5-2.4-1.5s4.1,0.1,4.8,0.1c0.8,0,1.3,0.2,1.3,1.3
		c0,1.6-2,4.1-5.5,4.1c-2.7,0-4.7-2.2-4.7-4.8C16.7,6.7,18.3,4.1,21.9,4.1z"/>
</g>
</svg>
